<?xml version="1.0" standalone="no"?>
<!DOCTYPE svg PUBLIC "-//W3C//DTD SVG 20010904//EN"
 "http://www.w3.org/TR/2001/REC-SVG-20010904/DTD/svg10.dtd">
<svg version="1.0" xmlns="http://www.w3.org/2000/svg"
 width="860.000000pt" height="506.000000pt" viewBox="0 0 860.000000 506.000000"
 preserveAspectRatio="xMidYMid meet">

<g transform="translate(0.000000,506.000000) scale(0.100000,-0.100000)"
fill="#000000" stroke="none">
<path d="M6484 4361 c-66 -64 -309 -333 -419 -466 -53 -63 -93 -110 -110 -129
-6 -6 -33 -38 -60 -71 -28 -32 -57 -66 -65 -75 -8 -9 -37 -42 -65 -75 -71 -83
-119 -139 -125 -145 -3 -3 -48 -54 -100 -115 -52 -60 -97 -112 -100 -115 -3
-3 -66 -75 -140 -160 -139 -160 -160 -183 -251 -286 -83 -92 -270 -309 -444
-514 -87 -102 -161 -187 -164 -190 -5 -4 -48 -55 -126 -149 -11 -13 -29 -34
-40 -47 -11 -12 -56 -63 -100 -114 -44 -50 -81 -88 -82 -83 -2 5 8 41 23 79
15 38 32 89 39 114 14 48 60 182 74 215 5 11 23 56 41 100 18 44 36 89 41 100
4 11 18 45 30 75 32 78 216 444 259 515 20 33 52 87 70 120 18 33 74 124 124
202 123 192 125 196 133 213 3 8 9 17 12 20 10 9 51 69 51 75 0 3 5 11 10 18
20 23 80 119 80 128 0 5 3 9 8 9 4 0 18 18 32 40 13 22 28 40 32 40 4 0 8 7 8
15 0 8 3 15 8 15 4 0 18 17 32 38 14 20 27 39 30 42 4 3 35 43 70 90 36 47 70
92 77 100 6 8 50 65 98 125 47 61 96 121 108 135 41 46 87 108 87 116 0 5 -7
1 -15 -10 -8 -10 -34 -39 -58 -65 -39 -42 -185 -204 -276 -306 -51 -57 -416
-421 -476 -475 -28 -25 -100 -90 -160 -145 -153 -139 -186 -169 -199 -180 -7
-5 -39 -35 -72 -65 -132 -121 -168 -154 -409 -370 -137 -123 -255 -229 -261
-235 -39 -36 -406 -362 -535 -475 -40 -36 -105 -94 -144 -130 -39 -36 -109
-99 -155 -140 -155 -137 -225 -203 -238 -221 -7 -11 -17 -19 -23 -19 -5 0 -9
119 -9 300 l0 300 223 0 222 0 63 69 c34 38 62 72 62 75 0 3 -128 6 -285 6
l-285 0 0 225 0 225 426 0 425 0 64 68 c36 37 65 73 65 80 0 9 -121 12 -570
12 l-570 0 2 -780 3 -781 1330 1 c731 0 1332 4 1336 8 4 4 48 117 99 252 101
268 156 414 170 445 16 37 77 189 105 265 25 67 39 86 123 173 53 53 99 97
104 97 4 0 8 -278 8 -618 0 -340 2 -621 4 -623 2 -2 38 -3 80 -1 l76 4 0 768
c0 423 -3 775 -6 784 -12 31 -56 18 -106 -31 -26 -26 -51 -44 -54 -40 -4 4 9
42 29 84 19 43 47 110 62 148 15 39 30 79 35 90 5 11 18 43 30 70 12 28 25 59
30 70 4 11 32 76 60 145 29 69 64 150 77 180 14 30 31 71 40 90 38 86 131 271
165 328 21 34 38 64 38 67 0 7 92 138 167 239 41 54 73 100 71 101 -2 2 -35
-27 -74 -64z"/>
<path d="M5685 4389 c-4 -6 -5 -12 -2 -15 2 -3 7 2 10 11 7 17 1 20 -8 4z"/>
<path d="M3614 3932 c-57 -18 -124 -110 -124 -172 0 -28 33 -104 52 -123 74
-71 180 -71 257 -1 49 44 67 106 51 173 -14 56 -35 83 -86 110 -38 21 -105 26
-150 13z"/>
<path d="M6980 2901 c-294 -56 -538 -287 -616 -586 -23 -87 -26 -325 -5 -395
29 -99 54 -158 93 -224 100 -169 228 -276 413 -344 51 -19 198 -42 267 -42 68
0 191 21 266 46 109 36 259 137 330 222 37 44 122 175 122 188 0 3 6 20 14 37
66 148 80 385 30 541 -59 187 -169 336 -323 437 -66 43 -119 67 -241 108 -44
15 -289 23 -350 12z m349 -181 c208 -74 354 -228 414 -440 63 -219 -2 -460
-169 -626 -77 -77 -125 -108 -229 -147 -73 -28 -91 -30 -205 -31 -95 -1 -138
4 -180 17 -97 32 -182 81 -248 142 -142 132 -212 290 -212 478 1 179 66 335
194 460 73 71 119 101 231 148 86 36 302 35 404 -1z"/>
<path d="M893 2893 l-163 -3 0 -785 0 -785 173 0 c238 1 432 14 497 35 275 85
481 317 536 602 36 189 2 395 -92 554 -58 100 -107 155 -197 221 -87 64 -137
92 -214 119 -63 22 -260 50 -333 46 -25 -1 -118 -3 -207 -4z m440 -180 c200
-54 353 -205 432 -424 26 -72 31 -241 10 -324 -38 -149 -127 -283 -247 -368
-128 -91 -192 -107 -445 -114 l-203 -6 0 627 0 626 195 0 c152 0 209 -4 258
-17z"/>
<path d="M1990 244 l-45 -45 2277 3 c1698 2 2274 6 2265 14 -7 7 -38 26 -69
43 l-57 31 -2163 0 -2164 0 -44 -46z"/>
</g>
</svg>
